<mxfile host="app.diagrams.net" modified="2021-08-16T23:02:37.489Z" agent="5.0 (Windows NT 10.0; Win64; x64) AppleWebKit/537.36 (KHTML, like Gecko) Chrome/92.0.4515.131 Safari/537.36" etag="oZG2YC9mAuMoaSHxUaz1" version="14.9.7" type="github">
  <diagram id="Lk4EkjJhUrZJCpCul70C" name="Page-1">
    <mxGraphModel dx="1991" dy="571" grid="1" gridSize="10" guides="1" tooltips="1" connect="1" arrows="1" fold="1" page="1" pageScale="1" pageWidth="827" pageHeight="1169" math="0" shadow="0">
      <root>
        <mxCell id="0" />
        <mxCell id="1" parent="0" />
        <mxCell id="YYW-h24_xA7e8C2LyHym-1" value="provide convenience to green bond stakeholder" style="rounded=1;whiteSpace=wrap;html=1;strokeColor=#82b366;fillColor=none;" vertex="1" parent="1">
          <mxGeometry x="340" y="90" width="120" height="50" as="geometry" />
        </mxCell>
        <mxCell id="YYW-h24_xA7e8C2LyHym-5" style="edgeStyle=orthogonalEdgeStyle;rounded=0;orthogonalLoop=1;jettySize=auto;html=1;exitX=0.5;exitY=0;exitDx=0;exitDy=0;entryX=0.5;entryY=1;entryDx=0;entryDy=0;" edge="1" parent="1" source="YYW-h24_xA7e8C2LyHym-4" target="YYW-h24_xA7e8C2LyHym-1">
          <mxGeometry relative="1" as="geometry" />
        </mxCell>
        <mxCell id="YYW-h24_xA7e8C2LyHym-4" value="time saving" style="rounded=1;whiteSpace=wrap;html=1;strokeColor=#82b366;fillColor=none;" vertex="1" parent="1">
          <mxGeometry x="340" y="240" width="120" height="60" as="geometry" />
        </mxCell>
        <mxCell id="YYW-h24_xA7e8C2LyHym-29" style="edgeStyle=orthogonalEdgeStyle;rounded=0;orthogonalLoop=1;jettySize=auto;html=1;exitX=0.5;exitY=0;exitDx=0;exitDy=0;entryX=0;entryY=0.5;entryDx=0;entryDy=0;" edge="1" parent="1" source="YYW-h24_xA7e8C2LyHym-6" target="YYW-h24_xA7e8C2LyHym-9">
          <mxGeometry relative="1" as="geometry" />
        </mxCell>
        <mxCell id="YYW-h24_xA7e8C2LyHym-6" value="Find way to save energy" style="rounded=1;whiteSpace=wrap;html=1;strokeColor=#82b366;fillColor=none;" vertex="1" parent="1">
          <mxGeometry x="40" y="370" width="120" height="50" as="geometry" />
        </mxCell>
        <mxCell id="YYW-h24_xA7e8C2LyHym-10" style="edgeStyle=orthogonalEdgeStyle;rounded=0;orthogonalLoop=1;jettySize=auto;html=1;exitX=0.5;exitY=0;exitDx=0;exitDy=0;entryX=0.25;entryY=1;entryDx=0;entryDy=0;" edge="1" parent="1" source="YYW-h24_xA7e8C2LyHym-9" target="YYW-h24_xA7e8C2LyHym-1">
          <mxGeometry relative="1" as="geometry" />
        </mxCell>
        <mxCell id="YYW-h24_xA7e8C2LyHym-9" value="environmental protect" style="rounded=1;whiteSpace=wrap;html=1;strokeColor=#82b366;fillColor=none;" vertex="1" parent="1">
          <mxGeometry x="170" y="240" width="120" height="60" as="geometry" />
        </mxCell>
        <mxCell id="YYW-h24_xA7e8C2LyHym-14" style="edgeStyle=orthogonalEdgeStyle;rounded=0;orthogonalLoop=1;jettySize=auto;html=1;exitX=0.5;exitY=0;exitDx=0;exitDy=0;entryX=0.75;entryY=1;entryDx=0;entryDy=0;" edge="1" parent="1" source="YYW-h24_xA7e8C2LyHym-12" target="YYW-h24_xA7e8C2LyHym-1">
          <mxGeometry relative="1" as="geometry" />
        </mxCell>
        <mxCell id="YYW-h24_xA7e8C2LyHym-12" value="Find ways to protect bonds&#39; and user&#39; security" style="rounded=1;whiteSpace=wrap;html=1;strokeColor=#82b366;fillColor=none;" vertex="1" parent="1">
          <mxGeometry x="500" y="240" width="120" height="60" as="geometry" />
        </mxCell>
        <mxCell id="YYW-h24_xA7e8C2LyHym-17" style="edgeStyle=orthogonalEdgeStyle;rounded=0;orthogonalLoop=1;jettySize=auto;html=1;exitX=0.5;exitY=0;exitDx=0;exitDy=0;entryX=0.75;entryY=1;entryDx=0;entryDy=0;" edge="1" parent="1" source="YYW-h24_xA7e8C2LyHym-16" target="YYW-h24_xA7e8C2LyHym-9">
          <mxGeometry relative="1" as="geometry" />
        </mxCell>
        <mxCell id="YYW-h24_xA7e8C2LyHym-16" value="store information in 2 database" style="rounded=1;whiteSpace=wrap;html=1;strokeColor=#6c8ebf;fillColor=none;" vertex="1" parent="1">
          <mxGeometry x="200" y="370" width="120" height="50" as="geometry" />
        </mxCell>
        <mxCell id="YYW-h24_xA7e8C2LyHym-32" style="edgeStyle=orthogonalEdgeStyle;rounded=0;orthogonalLoop=1;jettySize=auto;html=1;exitX=0.5;exitY=0;exitDx=0;exitDy=0;entryX=0.5;entryY=1;entryDx=0;entryDy=0;" edge="1" parent="1" source="YYW-h24_xA7e8C2LyHym-19" target="YYW-h24_xA7e8C2LyHym-4">
          <mxGeometry relative="1" as="geometry" />
        </mxCell>
        <mxCell id="YYW-h24_xA7e8C2LyHym-19" value="All operations are doing online" style="rounded=1;whiteSpace=wrap;html=1;strokeColor=#6c8ebf;fillColor=none;" vertex="1" parent="1">
          <mxGeometry x="340" y="365" width="120" height="60" as="geometry" />
        </mxCell>
        <mxCell id="YYW-h24_xA7e8C2LyHym-30" style="edgeStyle=orthogonalEdgeStyle;rounded=0;orthogonalLoop=1;jettySize=auto;html=1;exitX=0.5;exitY=0;exitDx=0;exitDy=0;entryX=0.5;entryY=1;entryDx=0;entryDy=0;" edge="1" parent="1" source="YYW-h24_xA7e8C2LyHym-20" target="YYW-h24_xA7e8C2LyHym-16">
          <mxGeometry relative="1" as="geometry" />
        </mxCell>
        <mxCell id="YYW-h24_xA7e8C2LyHym-31" style="edgeStyle=orthogonalEdgeStyle;rounded=0;orthogonalLoop=1;jettySize=auto;html=1;exitX=0.5;exitY=1;exitDx=0;exitDy=0;entryX=0.75;entryY=1;entryDx=0;entryDy=0;" edge="1" parent="1" source="YYW-h24_xA7e8C2LyHym-20" target="YYW-h24_xA7e8C2LyHym-25">
          <mxGeometry relative="1" as="geometry">
            <Array as="points">
              <mxPoint x="260" y="620" />
              <mxPoint x="130" y="620" />
            </Array>
          </mxGeometry>
        </mxCell>
        <mxCell id="YYW-h24_xA7e8C2LyHym-20" value="no need for paper record" style="rounded=1;whiteSpace=wrap;html=1;strokeColor=#82b366;fillColor=none;" vertex="1" parent="1">
          <mxGeometry x="200" y="500" width="120" height="60" as="geometry" />
        </mxCell>
        <mxCell id="YYW-h24_xA7e8C2LyHym-26" style="edgeStyle=orthogonalEdgeStyle;rounded=0;orthogonalLoop=1;jettySize=auto;html=1;exitX=0.5;exitY=0;exitDx=0;exitDy=0;entryX=0.5;entryY=1;entryDx=0;entryDy=0;" edge="1" parent="1" source="YYW-h24_xA7e8C2LyHym-25" target="YYW-h24_xA7e8C2LyHym-6">
          <mxGeometry relative="1" as="geometry" />
        </mxCell>
        <mxCell id="YYW-h24_xA7e8C2LyHym-25" value="represent loan as ERC721 token" style="rounded=1;whiteSpace=wrap;html=1;strokeColor=#6c8ebf;fillColor=none;" vertex="1" parent="1">
          <mxGeometry x="40" y="500" width="120" height="60" as="geometry" />
        </mxCell>
        <mxCell id="YYW-h24_xA7e8C2LyHym-28" value="" style="edgeStyle=orthogonalEdgeStyle;rounded=0;orthogonalLoop=1;jettySize=auto;html=1;" edge="1" parent="1" source="YYW-h24_xA7e8C2LyHym-27" target="YYW-h24_xA7e8C2LyHym-25">
          <mxGeometry relative="1" as="geometry" />
        </mxCell>
        <mxCell id="YYW-h24_xA7e8C2LyHym-27" value="save contribution and operational cost" style="rounded=1;whiteSpace=wrap;html=1;strokeColor=#9673a6;fillColor=none;" vertex="1" parent="1">
          <mxGeometry x="-149" y="500" width="120" height="60" as="geometry" />
        </mxCell>
        <mxCell id="YYW-h24_xA7e8C2LyHym-34" value="" style="edgeStyle=orthogonalEdgeStyle;rounded=0;orthogonalLoop=1;jettySize=auto;html=1;" edge="1" parent="1" source="YYW-h24_xA7e8C2LyHym-33" target="YYW-h24_xA7e8C2LyHym-19">
          <mxGeometry relative="1" as="geometry" />
        </mxCell>
        <mxCell id="YYW-h24_xA7e8C2LyHym-33" value="financial regulator and green feature verifier check bonds online" style="rounded=1;whiteSpace=wrap;html=1;strokeColor=#6c8ebf;fillColor=none;" vertex="1" parent="1">
          <mxGeometry x="340" y="470" width="120" height="60" as="geometry" />
        </mxCell>
        <mxCell id="YYW-h24_xA7e8C2LyHym-36" style="edgeStyle=orthogonalEdgeStyle;rounded=0;orthogonalLoop=1;jettySize=auto;html=1;exitX=0.5;exitY=0;exitDx=0;exitDy=0;entryX=0.25;entryY=1;entryDx=0;entryDy=0;" edge="1" parent="1" source="YYW-h24_xA7e8C2LyHym-35" target="YYW-h24_xA7e8C2LyHym-25">
          <mxGeometry relative="1" as="geometry" />
        </mxCell>
        <mxCell id="YYW-h24_xA7e8C2LyHym-43" style="edgeStyle=orthogonalEdgeStyle;rounded=0;orthogonalLoop=1;jettySize=auto;html=1;exitX=1;exitY=0.25;exitDx=0;exitDy=0;entryX=0;entryY=0.5;entryDx=0;entryDy=0;" edge="1" parent="1" source="YYW-h24_xA7e8C2LyHym-35" target="YYW-h24_xA7e8C2LyHym-19">
          <mxGeometry relative="1" as="geometry">
            <Array as="points">
              <mxPoint x="130" y="720" />
              <mxPoint x="330" y="720" />
              <mxPoint x="330" y="395" />
            </Array>
          </mxGeometry>
        </mxCell>
        <mxCell id="YYW-h24_xA7e8C2LyHym-48" style="edgeStyle=orthogonalEdgeStyle;rounded=0;orthogonalLoop=1;jettySize=auto;html=1;exitX=1;exitY=0.75;exitDx=0;exitDy=0;entryX=1;entryY=0.5;entryDx=0;entryDy=0;" edge="1" parent="1" source="YYW-h24_xA7e8C2LyHym-35" target="YYW-h24_xA7e8C2LyHym-12">
          <mxGeometry relative="1" as="geometry">
            <Array as="points">
              <mxPoint x="810" y="745" />
              <mxPoint x="810" y="270" />
            </Array>
          </mxGeometry>
        </mxCell>
        <mxCell id="YYW-h24_xA7e8C2LyHym-35" value="data stored in blockchain" style="rounded=1;whiteSpace=wrap;html=1;strokeColor=#6c8ebf;fillColor=none;" vertex="1" parent="1">
          <mxGeometry x="10" y="700" width="120" height="60" as="geometry" />
        </mxCell>
        <mxCell id="YYW-h24_xA7e8C2LyHym-40" style="edgeStyle=orthogonalEdgeStyle;rounded=0;orthogonalLoop=1;jettySize=auto;html=1;exitX=0.5;exitY=0;exitDx=0;exitDy=0;entryX=1;entryY=0.25;entryDx=0;entryDy=0;" edge="1" parent="1" source="YYW-h24_xA7e8C2LyHym-39" target="YYW-h24_xA7e8C2LyHym-19">
          <mxGeometry relative="1" as="geometry" />
        </mxCell>
        <mxCell id="YYW-h24_xA7e8C2LyHym-39" value="bond issuer check bond state, transfer E-voucher online" style="rounded=1;whiteSpace=wrap;html=1;strokeColor=#6c8ebf;fillColor=none;" vertex="1" parent="1">
          <mxGeometry x="520" y="470" width="120" height="60" as="geometry" />
        </mxCell>
        <mxCell id="YYW-h24_xA7e8C2LyHym-42" style="edgeStyle=orthogonalEdgeStyle;rounded=0;orthogonalLoop=1;jettySize=auto;html=1;exitX=0.5;exitY=0;exitDx=0;exitDy=0;entryX=1;entryY=0.75;entryDx=0;entryDy=0;" edge="1" parent="1" source="YYW-h24_xA7e8C2LyHym-41" target="YYW-h24_xA7e8C2LyHym-19">
          <mxGeometry relative="1" as="geometry" />
        </mxCell>
        <mxCell id="YYW-h24_xA7e8C2LyHym-41" value="investor view issued bonds, purchase or transfer bonds kept" style="rounded=1;whiteSpace=wrap;html=1;strokeColor=#6c8ebf;fillColor=none;" vertex="1" parent="1">
          <mxGeometry x="430" y="540" width="120" height="60" as="geometry" />
        </mxCell>
        <mxCell id="YYW-h24_xA7e8C2LyHym-45" value="" style="edgeStyle=orthogonalEdgeStyle;rounded=0;orthogonalLoop=1;jettySize=auto;html=1;" edge="1" parent="1" source="YYW-h24_xA7e8C2LyHym-44" target="YYW-h24_xA7e8C2LyHym-41">
          <mxGeometry relative="1" as="geometry" />
        </mxCell>
        <mxCell id="YYW-h24_xA7e8C2LyHym-44" value="check whether investor has enough balance in MetaMask to pay for the selected bond" style="rounded=1;whiteSpace=wrap;html=1;strokeColor=#6c8ebf;fillColor=none;" vertex="1" parent="1">
          <mxGeometry x="420" y="660" width="140" height="60" as="geometry" />
        </mxCell>
        <mxCell id="YYW-h24_xA7e8C2LyHym-47" value="" style="edgeStyle=orthogonalEdgeStyle;rounded=0;orthogonalLoop=1;jettySize=auto;html=1;" edge="1" parent="1" source="YYW-h24_xA7e8C2LyHym-46" target="YYW-h24_xA7e8C2LyHym-39">
          <mxGeometry relative="1" as="geometry" />
        </mxCell>
        <mxCell id="YYW-h24_xA7e8C2LyHym-46" value="check whether the issuer is on the verge of bankruptcy" style="rounded=1;whiteSpace=wrap;html=1;strokeColor=#6c8ebf;fillColor=none;" vertex="1" parent="1">
          <mxGeometry x="590" y="590" width="120" height="60" as="geometry" />
        </mxCell>
        <mxCell id="YYW-h24_xA7e8C2LyHym-51" style="edgeStyle=orthogonalEdgeStyle;rounded=0;orthogonalLoop=1;jettySize=auto;html=1;exitX=0.5;exitY=0;exitDx=0;exitDy=0;entryX=0.5;entryY=1;entryDx=0;entryDy=0;" edge="1" parent="1" source="YYW-h24_xA7e8C2LyHym-50" target="YYW-h24_xA7e8C2LyHym-12">
          <mxGeometry relative="1" as="geometry" />
        </mxCell>
        <mxCell id="YYW-h24_xA7e8C2LyHym-50" value="loan connected with MetaMask account" style="rounded=1;whiteSpace=wrap;html=1;strokeColor=#6c8ebf;fillColor=none;" vertex="1" parent="1">
          <mxGeometry x="620" y="365" width="120" height="60" as="geometry" />
        </mxCell>
      </root>
    </mxGraphModel>
  </diagram>
</mxfile>
